<?xml version="1.0" encoding="UTF-8" standalone="no"?>
<!-- Created with Inkscape (http://www.inkscape.org/) -->

<svg
   xmlns:dc="http://purl.org/dc/elements/1.1/"
   xmlns:cc="http://creativecommons.org/ns#"
   xmlns:rdf="http://www.w3.org/1999/02/22-rdf-syntax-ns#"
   xmlns:svg="http://www.w3.org/2000/svg"
   xmlns="http://www.w3.org/2000/svg"
   xmlns:sodipodi="http://sodipodi.sourceforge.net/DTD/sodipodi-0.dtd"
   xmlns:inkscape="http://www.inkscape.org/namespaces/inkscape"
   width="210mm"
   height="297mm"
   viewBox="0 0 210 297"
   version="1.1"
   id="svg38"
   inkscape:version="0.92.0 r15299"
   sodipodi:docname="bob_Stern_white_full.svg">
  <defs
     id="defs32" />
  <sodipodi:namedview
     id="base"
     pagecolor="#ffffff"
     bordercolor="#666666"
     borderopacity="1.0"
     inkscape:pageopacity="0.0"
     inkscape:pageshadow="2"
     inkscape:zoom="1"
     inkscape:cx="226.55951"
     inkscape:cy="707.36009"
     inkscape:document-units="mm"
     inkscape:current-layer="layer1"
     showgrid="false"
     inkscape:window-width="1920"
     inkscape:window-height="1017"
     inkscape:window-x="-8"
     inkscape:window-y="-8"
     inkscape:window-maximized="1"
     inkscape:measure-start="62,1056"
     inkscape:measure-end="46,414" />
  <metadata
     id="metadata35">
    <rdf:RDF>
      <cc:Work
         rdf:about="">
        <dc:format>image/svg+xml</dc:format>
        <dc:type
           rdf:resource="http://purl.org/dc/dcmitype/StillImage" />
        <dc:title></dc:title>
      </cc:Work>
    </rdf:RDF>
  </metadata>
  <g
     inkscape:label="Ebene 1"
     inkscape:groupmode="layer"
     id="layer1">
    <path
       style="fill:#c8c8c8;fill-opacity:1;stroke-width:0.06356783"
       d="m 106.32241,185.93839 c -9.979997,-8.03571 -18.182492,-14.64285 -18.227843,-14.67856 -0.06757,-0.0643 1.753564,-1.42857 9.817131,-7.28572 5.445002,-3.96428 9.919992,-7.17856 9.945002,-7.14285 0.0248,0.0286 3.7275,9.75 8.22821,21.57142 4.50071,11.82142 8.23642,21.64285 8.30178,21.82142 0.0653,0.16786 0.11038,0.30357 0.1001,0.30357 -0.01,0 -8.18393,-6.57143 -18.16392,-14.60713 z m -71.676142,13.10714 c 0.274,-0.71429 17.022848,-43.04999 17.039636,-43.06784 0.03429,-0.0358 19.617846,14.64285 19.600345,14.67856 -0.02062,0.0571 -36.705336,28.78571 -36.758052,28.78571 -0.01855,0 0.03457,-0.17858 0.118036,-0.35715 z m 44.795263,-1.42857 c -0.0081,-0.0893 -7.639639,-35.21427 -7.652852,-35.21427 -0.0067,-0.007 -2.814286,-2.14286 -6.241782,-4.57142 -6.211426,-4.53571 -6.230714,-4.57144 -6.515713,-4.53571 -0.157321,0.011 -8.251779,0.71428 -17.98749,1.42857 -9.736067,0.71428 -17.706777,1.42857 -17.713205,1.42857 -0.0063,-0.007 7.015711,-4.03572 15.604634,-9 l 15.616062,-8.96429 2.403573,-7.2857 2.403568,-7.28571 -6.910711,-16.14285 c -3.801067,-8.857136 -7.006423,-16.357134 -7.122852,-16.607131 -0.11675,-0.271436 -0.179321,-0.357148 -0.139035,-0.357148 0.04025,0.02497 6.072138,5.428566 13.403923,11.999989 l 13.330705,11.96428 3.965001,0.0393 c 2.182142,0.025 5.68357,0.0428 7.783571,0.0428 h 3.81821 L 100.96498,102.7349 c 7.41286,-6.499995 13.52821,-11.892855 13.59,-11.928561 0.1395,-0.11429 1.16428,-2.500003 -7.26607,16.642841 l -7.19071,16.2857 2.34643,7.32144 c 1.66785,5.17857 2.38214,7.35714 2.47143,7.42857 0.0675,0.0499 7.0757,4.14286 15.57428,9.10712 8.4982,4.92859 15.44319,9.00001 15.43284,9.00001 -0.01,0.011 -8.01107,-0.71428 -17.77928,-1.78571 -9.76856,-1.07143 -17.83677,-1.78571 -17.92999,-1.78571 -0.12242,0 -1.892847,1.07142 -6.42,4.49999 -3.439275,2.49999 -6.296415,4.53571 -6.351777,4.60714 -0.06568,0.0714 -1.453571,6.14285 -3.992143,17.49999 -3.581065,16 -3.992135,17.82142 -4.007139,17.64285 z m 18.36642,-46.95356 v -0.71427 H 79.245813 60.683685 v 0.71427 0.7143 h 18.562128 18.562138 z m -27.89677,-1.42857 c 0.842854,-0.27142 1.489283,-1.07142 1.80357,-1.7857 0.242357,-0.71429 0.303214,-2.50001 0.266285,-7.14286 -0.03296,-4.28571 -0.06689,-4.82142 -0.360717,-5.60714 -0.344141,-1.07144 -1.492855,-1.42857 -2.92857,-1.42857 -1.049998,0 -1.942854,0.32857 -2.646424,1.07143 l -0.34143,0.31072 V 132.50985 130.367 H 63.25747 60.81104 v 9.67856 9.67857 h 2.285714 2.285715 l 0.06604,-0.25358 c 0.03631,-0.13928 0.09604,-0.35713 0.132712,-0.35713 0.116394,-0.35715 0.106425,-0.35715 0.421429,-0.14645 0.492856,0.35715 0.999999,0.7143 1.642859,1.07144 0.528571,0.15715 1.667853,0.125 2.267856,-0.0678 z m 0.323357,-2.14284 c -0.153644,-0.12858 -0.207037,-0.225 -0.206612,-0.35715 l 4.3e-4,-0.19999 0.254251,0.0643 c 0.253107,0.0643 0.254284,0.0678 0.254284,0.35714 0,0.17143 -0.02149,0.31072 -0.04769,0.30714 -0.02621,0 -0.140894,-0.0785 -0.254855,-0.175 z m -4.105359,-0.7143 c -0.09272,-0.0714 -0.215106,-0.275 -0.277071,-0.35713 -0.100639,-0.29643 -0.112961,-0.71429 -0.132532,-4.89286 -0.01452,-3.21429 3.9e-4,-4.64286 0.04543,-4.82142 0.09328,-0.31787 0.280642,-0.35715 0.582144,-0.35715 0.18532,0 0.292712,0.0428 0.417855,0.16786 0.149964,0.15 0.1755,0.23929 0.218357,0.71429 0.02673,0.32499 0.06857,2.5 0.09304,4.75 0.04825,4.49999 0.04528,4.57142 -0.290747,4.89285 -0.213752,0.21428 -0.428575,0.23213 -0.657142,0.0499 z m 2.328572,-0.25356 c -0.367857,-0.11786 -0.389285,-0.13571 -0.318429,-0.25357 0.103895,-0.16428 0.142964,-0.15714 0.449999,0.0785 0.478572,0.35715 0.475003,0.35715 -0.13314,0.17501 z m -6.234638,-0.71428 c -0.07743,-0.21429 -0.129038,-0.35715 -0.114679,-0.35715 0.01434,-0.0143 0.176679,-0.0643 0.360714,-0.11428 l 0.334606,-0.0857 0.471427,0.34286 0.471428,0.34286 -0.241746,0.0607 c -0.132968,0.0321 -0.400002,0.0928 -0.592858,0.13572 -0.192285,0.0393 -0.392859,0.0857 -0.446427,0.1 -0.07165,0.0215 -0.136822,-0.0785 -0.239289,-0.35715 z m 0.624997,-10.82143 c -0.453569,-0.11785 -0.485714,-0.13929 -0.682141,-0.35715 -0.113609,-0.17499 -0.206573,-0.32858 -0.206573,-0.34285 0,-0.0143 0.101211,-0.0607 0.224929,-0.1 0.162143,-0.0535 0.216679,-0.10351 0.19525,-0.18214 -0.01637,-0.0571 -0.04936,-0.71429 -0.07339,-1.42857 -0.03417,-1.07144 -0.02642,-1.07144 0.03549,-1.07144 0.04354,0 0.300072,0.0607 0.571429,0.13572 l 0.489286,0.13571 0.421429,0.71428 c 0.232465,0.30358 0.421428,0.7143 0.421428,0.7143 0,0.0928 -0.857141,2.14284 -0.889286,2.14284 -0.01745,-0.004 -0.246317,-0.0643 -0.507143,-0.13213 z m 17.520709,14.64285 c 1.189281,-0.20358 1.989279,-0.71428 2.696421,-1.42857 0.564293,-0.7143 0.878578,-1.07143 1.107143,-2.14287 0.290927,-1.07141 0.31911,-1.42857 0.318647,-4.96427 -4.33e-4,-3.21429 -0.0047,-3.21429 -0.147142,-3.85714 -0.510713,-2.14286 -1.846436,-3.57143 -4.223217,-3.92858 -0.864284,-0.13214 -2.396431,-0.0822 -3.142854,0.1 -1.949998,0.35715 -3.014284,1.78572 -3.432142,4.10715 -0.09728,0.71428 -0.11232,1.07142 -0.113497,3.89286 -0.0013,3.57142 0.02424,3.85714 0.320676,4.99999 0.482143,1.78572 1.507145,2.85714 3.619285,2.85714 0.789285,0.12143 2.296426,0.125 2.996428,0.004 z m 2.542854,-1.78571 c -0.02113,-0.0785 -0.03873,-0.17501 -0.03913,-0.21429 -7.32e-4,-0.0714 0.375005,-0.23929 0.428575,-0.1893 0.02672,0.0286 -0.283502,0.7143 -0.326142,0.7143 -0.01297,0 -0.04085,-0.0643 -0.06192,-0.14286 z m -1.867863,0.004 -0.396425,-0.0607 v -0.22143 c 0,-0.20714 0.01108,-0.22143 0.17479,-0.18927 0.09618,0.0179 0.325004,0.0536 0.50714,0.075 0.265603,0.0321 0.333748,0.0643 0.333748,0.15714 0,0.175 -0.06875,0.31785 -0.149859,0.30713 -0.03992,-0.004 -0.251421,-0.0356 -0.471421,-0.0678 z m -2.367849,-0.71427 c -0.349858,-0.35001 -0.349896,-0.35001 -0.349896,-5.28572 0,-5.10714 -0.0051,-5.03571 0.399998,-5.17857 0.453574,-0.18929 0.714288,0.0678 0.83572,0.71429 0.09536,0.71428 0.09121,8.53571 -0.0044,9.07142 -0.05412,0.31071 -0.117392,0.35714 -0.249392,0.71429 -0.224964,0.22143 -0.403568,0.22143 -0.63214,-0.007 z m 3.249994,-10.75 c -0.327823,-0.0644 -0.607145,-0.12501 -0.617855,-0.13929 -0.01225,-0.011 0.0216,-0.0857 0.0752,-0.16072 0.08925,-0.12856 0.151211,-0.13928 0.732136,-0.13928 h 0.635722 l -0.04298,0.23928 c -0.04848,0.26787 -0.07795,0.33572 -0.141326,0.32501 -0.0242,-0.004 -0.312141,-0.0607 -0.639289,-0.125 z m 12.890711,13.57141 c 1.092859,-0.25713 1.850004,-1.07142 2.21071,-2.14285 0.109549,-0.35714 0.116859,-0.71429 0.116859,-5.78572 0,-5.67856 -0.0055,-5.82142 -0.291571,-6.67855 -0.306609,-1.07143 -1.453563,-1.42858 -2.917852,-1.42858 -1.064289,0 -1.942859,0.31786 -2.617859,1.07142 l -0.367855,0.34286 v -2.14285 -2.14286 h -2.446431 -2.446424 v 9.67857 9.67857 h 2.282139 2.282138 l 0.143291,-0.71428 c 0.07883,-0.32143 0.147714,-0.71429 0.153072,-0.71429 0.0055,-0.007 0.189107,0.15356 0.407142,0.35714 0.439285,0.35715 1.078573,0.71428 1.607147,1.07143 0.449994,0.12143 1.385709,0.12499 1.892856,0.004 z m 0.689284,-2.14285 c -0.187857,-0.15357 -0.238385,-0.23929 -0.238385,-0.35714 v -0.21072 l 0.25428,0.0643 0.254281,0.0643 v 0.34286 c 0,0.18928 -0.0078,0.33929 -0.01595,0.33929 -0.0087,0 -0.123145,-0.0893 -0.254281,-0.19643 z m -4.197852,-0.71429 c -0.328538,-0.35714 -0.325466,-0.34286 -0.347356,-5.35713 -0.02232,-5.10715 -0.0341,-4.92857 0.334816,-5.17857 0.203964,-0.13215 0.532142,-0.075 0.725003,0.12857 0.126712,0.13572 0.148397,0.25 0.196145,1.07143 0.09725,1.42857 0.14667,8.42856 0.06388,8.82143 -0.09061,0.35714 -0.274575,0.71427 -0.578569,0.71427 -0.198321,0.0286 -0.248576,0.011 -0.396431,-0.16427 z m 2.353568,-0.20713 c -0.326,-0.11072 -0.357146,-0.13929 -0.299718,-0.24643 0.08878,-0.16786 0.115468,-0.16072 0.507147,0.13214 0.378565,0.28214 0.33554,0.30357 -0.206069,0.11429 z m -6.213923,-0.71477 c -0.07957,-0.21071 -0.129501,-0.35713 -0.110935,-0.35713 0.01855,-0.0179 0.182647,-0.0714 0.364297,-0.11787 l 0.330918,-0.0893 0.44286,0.32143 c 0.243532,0.17858 0.417859,0.34286 0.389282,0.35715 -0.02868,0.025 -0.295208,0.0965 -0.592852,0.16071 -0.297213,0.0607 -0.571426,0.125 -0.610713,0.13929 -0.03873,0.0143 -0.135535,-0.14643 -0.215112,-0.35715 z m 0.621429,-10.82141 c -0.474995,-0.11787 -0.49643,-0.13216 -0.682142,-0.35716 -0.105567,-0.17141 -0.191965,-0.32142 -0.191965,-0.33571 0,-0.0143 0.08875,-0.0571 0.197215,-0.0928 l 0.197182,-0.0679 -0.04313,-1.07142 c -0.02373,-0.71429 -0.0572,-1.42857 -0.07433,-1.42857 -0.0202,-0.075 0.004,-0.11429 0.0693,-0.11429 0.118078,0 0.957142,0.22857 1.050005,0.28571 0.03488,0.0213 0.253213,0.28214 0.485705,0.71429 l 0.421426,0.71428 -0.424993,1.07143 c -0.234363,0.71429 -0.446435,1.07143 -0.467861,1.07143 -0.02333,0.0178 -0.263457,-0.0178 -0.532141,-0.0893 z m 9.599991,-6.32144 -0.01823,-0.71427 -18.546056,-0.0179 -18.546068,-0.0143 v 0.71429 0.71428 H 79.123086 97.68736 Z m -71.078676,-0.3575 C 15.896921,121.17057 7.186569,115.31343 7.2337118,115.31343 c 0.047321,-0.011 9.2399942,0.35714 20.4278462,1.07142 11.188208,0.7143 21.64356,1.42858 23.234276,1.42858 1.589285,0.0928 2.90714,0.17857 2.921424,0.19643 0.03584,0.0286 -7.707495,23.21427 -7.753567,23.21427 -0.01746,0 -8.781066,-5.82142 -19.474275,-12.96428 z m 87.024883,12.78571 c -0.0186,-0.0644 -1.68213,-5.32143 -3.69643,-11.67857 -2.01428,-6.35714 -3.65356,-11.57142 -3.6425,-11.57142 0.041,-0.0321 46.24405,-1.78571 46.46152,-1.78571 0.20911,0.0178 -1.33215,1.07143 -19.37571,12.64285 -10.78142,6.92857 -19.62749,12.60713 -19.65785,12.64285 -0.0304,0.011 -0.0704,-0.0321 -0.0891,-0.0928 z M 67.693504,108.95629 c 3.90821,-14.464276 12.227495,-45.00712 12.255707,-44.974974 0.02163,0.02858 2.721421,9.928563 5.997142,22.0357 3.278574,12.071426 6.025352,22.214274 6.10749,22.535704 l 0.149679,0.71428 H 79.933533 c -11.654998,0 -12.268569,-0.003 -12.240352,-0.11071 z"
       id="path21"
       inkscape:connector-curvature="0" />
  </g>
</svg>
