<?xml version="1.0" encoding="UTF-8" standalone="no"?>
<!-- Created with Inkscape (http://www.inkscape.org/) -->

<svg
   xmlns:dc="http://purl.org/dc/elements/1.1/"
   xmlns:cc="http://creativecommons.org/ns#"
   xmlns:rdf="http://www.w3.org/1999/02/22-rdf-syntax-ns#"
   xmlns:svg="http://www.w3.org/2000/svg"
   xmlns="http://www.w3.org/2000/svg"
   xmlns:sodipodi="http://sodipodi.sourceforge.net/DTD/sodipodi-0.dtd"
   xmlns:inkscape="http://www.inkscape.org/namespaces/inkscape"
   width="210mm"
   height="297mm"
   viewBox="0 0 210 297"
   version="1.1"
   id="svg38"
   inkscape:version="0.92.0 r15299"
   sodipodi:docname="bob_stern.svg">
  <defs
     id="defs32">
    <filter
       style="color-interpolation-filters:sRGB;"
       inkscape:label="Lightness-Contrast"
       id="filter3708">
      <feColorMatrix
         values="0.6146 0 0 0 0.1927 0 0.6146 0 0 0.1927 0 0 0.6146 0 0.1927 0 0 0 1 0"
         id="feColorMatrix3706"
         result="fbSourceGraphic" />
      <feColorMatrix
         result="fbSourceGraphicAlpha"
         in="fbSourceGraphic"
         values="0 0 0 -1 0 0 0 0 -1 0 0 0 0 -1 0 0 0 0 1 0"
         id="feColorMatrix3710" />
      <feColorMatrix
         id="feColorMatrix3712"
         values="0.5495 0 0 0 0.22525 0 0.5495 0 0 0.22525 0 0 0.5495 0 0.22525 0 0 0 1 0"
         in="fbSourceGraphic" />
    </filter>
  </defs>
  <sodipodi:namedview
     id="base"
     pagecolor="#ffffff"
     bordercolor="#666666"
     borderopacity="1.0"
     inkscape:pageopacity="0.0"
     inkscape:pageshadow="2"
     inkscape:zoom="1"
     inkscape:cx="396.55951"
     inkscape:cy="707.36009"
     inkscape:document-units="mm"
     inkscape:current-layer="layer1"
     showgrid="false"
     inkscape:window-width="1920"
     inkscape:window-height="1017"
     inkscape:window-x="-8"
     inkscape:window-y="-8"
     inkscape:window-maximized="1" />
  <metadata
     id="metadata35">
    <rdf:RDF>
      <cc:Work
         rdf:about="">
        <dc:format>image/svg+xml</dc:format>
        <dc:type
           rdf:resource="http://purl.org/dc/dcmitype/StillImage" />
        <dc:title></dc:title>
      </cc:Work>
    </rdf:RDF>
  </metadata>
  <g
     inkscape:label="Ebene 1"
     inkscape:groupmode="layer"
     id="layer1">
    <path
       style="fill:#000000;stroke-width:0.08466667;filter:url(#filter3708)"
       d="m 141.06384,176.5931 c -13.29208,-10.69016 -24.21706,-19.48512 -24.27775,-19.54435 -0.0899,-0.0877 2.33342,-1.88372 13.07513,-9.69033 7.252,-5.27044 13.21253,-9.5533 13.24561,-9.51747 0.0331,0.0358 4.9646,12.96199 10.95894,28.72481 5.99433,15.76281 10.96998,28.84064 11.05699,29.06183 0.087,0.22119 0.14701,0.40217 0.13335,0.40217 -0.0137,0 -10.90019,-8.74649 -24.19227,-19.43666 z m -95.464859,17.46816 c 0.364927,-0.95553 22.672376,-57.33993 22.694855,-57.36362 0.04567,-0.0481 26.128919,19.48024 26.105662,19.54513 -0.02741,0.0765 -48.887525,38.34765 -48.95774,38.34765 -0.02469,0 0.04607,-0.23812 0.157223,-0.52916 z m 59.662459,-1.95645 c -0.0109,-0.11801 -10.175312,-46.9123 -10.192912,-46.92535 -0.009,-0.007 -3.749899,-2.7475 -8.31343,-6.09099 -8.273007,-6.06126 -8.298452,-6.07904 -8.678336,-6.06007 -0.20955,0.0105 -10.990492,0.94848 -23.957647,2.08448 -12.967158,1.13601 -23.583549,2.05776 -23.591983,2.04834 -0.0084,-0.009 9.344123,-5.39766 20.78346,-11.97383 l 20.798795,-11.9567 3.201286,-9.70422 3.201284,-9.704232 L 69.30751,72.345494 C 64.245065,60.533285 59.975852,50.571635 59.820372,50.208489 59.66489,49.845346 59.581557,49.575344 59.635185,49.608488 c 0.05363,0.03314 8.087267,7.229586 17.852538,15.992097 l 17.755035,15.931833 5.281172,0.0563 c 2.90464,0.0309 7.56971,0.0563 10.36682,0.0563 l 5.08565,7e-5 17.95096,-15.769173 c 9.87303,-8.673037 18.01812,-15.824579 18.10022,-15.892309 0.18581,-0.1533 1.5509,-3.279802 -9.67749,22.16463 l -9.57725,21.702812 3.12637,9.749782 c 2.21962,6.92201 3.17376,9.78693 3.28973,9.87785 0.0899,0.0704 9.42424,5.51867 20.74309,12.10718 11.31885,6.58852 20.56857,11.99028 20.55494,12.00392 -0.0136,0.0136 -10.66972,-0.96689 -23.68018,-2.17895 -13.01046,-1.21207 -23.75673,-2.20375 -23.8806,-2.20375 -0.16305,0 -2.52278,1.64896 -8.55081,5.97528 -4.57909,3.28639 -8.386,6.03912 -8.4598,6.11716 -0.0875,0.0926 -1.93645,8.19373 -5.31734,23.29824 -4.76937,21.3076 -5.31715,23.72042 -5.3368,23.50705 z m 24.46199,-62.5384 v -0.84666 H 105.00076 80.278098 v 0.84666 0.84667 h 24.722662 24.72267 z m -37.155584,-1.85272 c 1.122865,-0.3609 1.983568,-1.23525 2.402892,-2.441 0.32283,-0.92832 0.40387,-3.10058 0.35468,-9.50694 -0.0439,-5.71423 -0.0891,-6.41636 -0.48079,-7.46325 -0.45838,-1.22512 -1.988338,-2.01647 -3.89853,-2.01647 -1.40018,0 -2.587199,0.43505 -3.524612,1.29179 l -0.454724,0.4156 v -3.01417 -3.01416 h -3.259664 -3.259669 v 12.86932 12.86934 h 3.044738 3.044738 l 0.08793,-0.33867 c 0.04836,-0.18627 0.12791,-0.50059 0.176776,-0.6985 0.155014,-0.62782 0.141732,-0.62316 0.561649,-0.19722 0.654447,0.66382 1.33141,1.07686 2.185837,1.33366 0.703754,0.21151 2.222547,0.16656 3.018748,-0.0893 z M 92.9985,125.0133 c -0.204607,-0.17096 -0.275732,-0.29935 -0.275166,-0.49672 l 7.94e-4,-0.26616 0.338666,0.086 c 0.337082,0.0856 0.338667,0.0879 0.338667,0.499 0,0.22716 -0.02858,0.41201 -0.0635,0.41076 -0.03493,-10e-4 -0.187669,-0.10603 -0.339429,-0.23284 z m -5.468088,-0.8702 c -0.123468,-0.0971 -0.286488,-0.36831 -0.369001,-0.61383 -0.134051,-0.3989 -0.15049,-1.00749 -0.17654,-6.53586 -0.01934,-4.10667 5.29e-4,-6.1951 0.06052,-6.3997 0.124261,-0.42288 0.373798,-0.62377 0.774806,-0.62377 0.246819,0 0.389884,0.058 0.55808,0.22617 0.199729,0.19973 0.233738,0.31832 0.290843,1.01408 0.03557,0.43334 0.09131,3.28344 0.123875,6.33356 0.06426,6.01916 0.06035,6.08511 -0.387246,6.53271 -0.284655,0.28466 -0.570506,0.30641 -0.875332,0.0666 z m 3.099192,-0.34154 c -0.48977,-0.15518 -0.5206,-0.17944 -0.424132,-0.33391 0.138371,-0.22157 0.190447,-0.2127 0.601442,0.10249 0.635252,0.48717 0.634209,0.48854 -0.17731,0.23142 z m -8.30372,-1.10574 c -0.103146,-0.28667 -0.171884,-0.53687 -0.152752,-0.55599 0.01913,-0.0191 0.235325,-0.0877 0.480435,-0.15235 l 0.445651,-0.11756 0.625925,0.45711 0.625927,0.45711 -0.321987,0.0811 c -0.177091,0.0446 -0.531535,0.12615 -0.787654,0.18119 -0.256117,0.055 -0.524692,0.11595 -0.596839,0.13533 -0.09544,0.0256 -0.182258,-0.10673 -0.318706,-0.48596 z m 0.830878,-14.39378 c -0.602749,-0.15749 -0.648972,-0.18712 -0.910164,-0.58344 -0.151344,-0.22965 -0.275169,-0.43408 -0.275169,-0.45429 0,-0.0202 0.134827,-0.0813 0.299614,-0.13564 0.215927,-0.0713 0.288555,-0.13812 0.26003,-0.23939 -0.02178,-0.0773 -0.06575,-0.87395 -0.09773,-1.77036 -0.0455,-1.27526 -0.03522,-1.62983 0.04728,-1.62983 0.05799,0 0.399645,0.0806 0.759233,0.17918 l 0.653801,0.17917 0.562885,0.73809 c 0.309586,0.40594 0.562885,0.7703 0.562885,0.80967 0,0.12389 -1.140875,3.08906 -1.185333,3.08071 -0.02328,-0.004 -0.328084,-0.0826 -0.677334,-0.17387 z m 23.335748,19.52645 c 1.58508,-0.27245 2.64793,-0.78402 3.59223,-1.72898 0.7499,-0.75043 1.16951,-1.53076 1.47605,-2.7449 0.38748,-1.53475 0.42501,-2.11972 0.42442,-6.6152 -7.9e-4,-4.10813 -0.006,-4.25955 -0.19599,-5.12023 -0.67881,-3.08046 -2.46069,-4.73402 -5.62502,-5.21992 -1.15296,-0.17704 -3.19368,-0.11263 -4.18823,0.13218 -2.597332,0.63937 -4.013852,2.33519 -4.569302,5.47027 -0.12954,0.73121 -0.14959,1.41588 -0.15113,5.16104 -0.002,4.60809 0.0323,5.13911 0.42708,6.63974 0.64411,2.44815 2.00924,3.58691 4.820482,4.02115 1.05201,0.1625 3.05808,0.16494 3.98941,0.005 z m 3.38762,-2.60124 c -0.0281,-0.10478 -0.0516,-0.2344 -0.0522,-0.28806 -10e-4,-0.0963 0.50173,-0.31678 0.56902,-0.24949 0.0356,0.0355 -0.37761,0.72805 -0.43436,0.72805 -0.0173,0 -0.0544,-0.0857 -0.0824,-0.1905 z m -2.48753,0.003 -0.52917,-0.0813 v -0.29567 c 0,-0.27692 0.0148,-0.29284 0.23283,-0.25109 0.12806,0.0245 0.43286,0.0692 0.67734,0.0993 0.35378,0.0436 0.4445,0.0863 0.4445,0.20923 0,0.23476 -0.0916,0.42356 -0.19956,0.41152 -0.0532,-0.006 -0.3349,-0.0474 -0.62594,-0.0921 z m -3.15348,-1.15378 c -0.46599,-0.46599 -0.46602,-0.46647 -0.46602,-7.04071 0,-6.78518 -0.007,-6.69048 0.53275,-6.91613 0.60198,-0.25152 0.95311,0.0874 1.11265,1.07414 0.12698,0.78529 0.12147,11.36393 -0.006,12.09763 -0.0721,0.41377 -0.15637,0.61431 -0.33216,0.7901 -0.29963,0.29963 -0.53769,0.29821 -0.84093,-0.005 z m 4.3281,-14.32792 c -0.43663,-0.0861 -0.80723,-0.16999 -0.82355,-0.18631 -0.0163,-0.0163 0.0288,-0.11311 0.10018,-0.21507 0.11886,-0.16971 0.20141,-0.1854 0.97555,-0.1854 h 0.8457 l -0.0573,0.3175 c -0.0646,0.35806 -0.10378,0.44862 -0.18822,0.43521 -0.0322,-0.005 -0.41574,-0.0798 -0.85238,-0.16593 z m 17.169,18.07884 c 1.4577,-0.3436 2.46409,-1.32822 2.94258,-2.87891 0.14589,-0.47281 0.15563,-0.95491 0.15563,-7.70105 0,-7.56871 -0.007,-7.73669 -0.38837,-8.90276 -0.40833,-1.24955 -1.93609,-2.05863 -3.8873,-2.05863 -1.41962,0 -2.58699,0.41958 -3.48783,1.2536 l -0.4915,0.45504 v -3.01479 -3.01479 h -3.25967 -3.25966 v 12.86933 12.86933 h 3.03852 3.03853 l 0.19086,-0.78317 c 0.10497,-0.43074 0.19673,-0.79127 0.20389,-0.80119 0.007,-0.01 0.25186,0.20574 0.54376,0.47923 0.58529,0.54836 1.43829,1.03712 2.13892,1.22556 0.60008,0.1614 1.84381,0.16298 2.52164,0.003 z m 0.91804,-2.75934 c -0.25023,-0.20442 -0.3175,-0.31852 -0.3175,-0.5385 v -0.27911 l 0.33867,0.086 0.33867,0.086 v 0.45536 c 0,0.25046 -0.01,0.4541 -0.0212,0.45254 -0.0116,-0.002 -0.16404,-0.11956 -0.33867,-0.26221 z m -5.59109,-0.99891 c -0.43758,-0.52004 -0.43347,-0.45673 -0.46266,-7.13743 -0.0297,-6.80896 -0.0454,-6.5677 0.44598,-6.88964 0.27163,-0.17798 0.71084,-0.10025 0.96557,0.1709 0.16874,0.17961 0.19762,0.33156 0.26124,1.37454 0.1295,2.12281 0.19535,11.22017 0.0851,11.75142 -0.12071,0.58146 -0.3657,0.88317 -0.76927,0.94736 -0.26414,0.042 -0.3311,0.0144 -0.52592,-0.21715 z m 3.13644,-0.27356 c -0.43418,-0.15136 -0.47686,-0.18686 -0.39919,-0.33198 0.11828,-0.22101 0.15381,-0.21171 0.67368,0.17616 0.50312,0.37538 0.44689,0.4073 -0.27449,0.15582 z m -8.27621,-1.08545 c -0.10597,-0.28337 -0.17246,-0.53543 -0.14774,-0.56015 0.0247,-0.0247 0.24327,-0.0972 0.48569,-0.1612 l 0.44078,-0.11627 0.58986,0.42902 c 0.32441,0.23596 0.55863,0.45652 0.52048,0.49013 -0.0382,0.0336 -0.39322,0.12894 -0.78904,0.21185 -0.39582,0.0829 -0.7619,0.16674 -0.81351,0.18629 -0.0516,0.0196 -0.18054,-0.19631 -0.28652,-0.47967 z m 0.82655,-14.41664 c -0.63262,-0.16032 -0.66303,-0.17975 -0.91017,-0.5814 -0.14063,-0.22854 -0.25568,-0.43028 -0.25568,-0.44831 0,-0.018 0.11819,-0.074 0.26265,-0.12434 l 0.26266,-0.0916 -0.0575,-1.63122 c -0.0316,-0.89717 -0.0762,-1.6979 -0.099,-1.77939 -0.0269,-0.0961 0.005,-0.14817 0.0923,-0.14817 0.15726,0 1.27616,0.30346 1.39913,0.37946 0.0465,0.0287 0.33726,0.37592 0.6462,0.77156 l 0.5617,0.71936 -0.5675,1.49898 c -0.31213,0.82444 -0.59287,1.52191 -0.62387,1.54993 -0.031,0.028 -0.35088,-0.0237 -0.71084,-0.1149 z m 12.78605,-8.423882 -0.0242,-0.8255 -24.7015,-0.0213 -24.701496,-0.0213 v 0.8468 0.846822 h 24.725726 24.72573 z M 34.866857,99.190418 C 20.624291,89.703488 9.0228398,81.931068 9.0858548,81.918368 c 0.06302,-0.0127 12.3065752,0.68319 27.2079072,1.54644 14.901334,0.86325 28.826884,1.66953 30.945667,1.79174 2.118783,0.12221 3.870405,0.23812 3.892489,0.2576 0.04775,0.0421 -10.265669,30.926842 -10.327156,30.925872 -0.02328,0 -11.69534,-7.76268 -25.937905,-17.249602 z M 150.77463,116.21494 c -0.0248,-0.0841 -2.24026,-7.08146 -4.92314,-15.54981 -2.68287,-8.468342 -4.86605,-15.406052 -4.85151,-15.417132 0.0546,-0.0416 61.59207,-2.60025 61.88172,-2.573 0.27851,0.0262 -1.77542,1.36609 -25.80616,16.8348 -14.3598,9.243482 -26.14182,16.817942 -26.18224,16.832142 -0.0404,0.0142 -0.0938,-0.0429 -0.11867,-0.127 z M 89.611675,73.453585 c 5.205543,-19.284961 16.285835,-59.945968 16.323285,-59.901077 0.0289,0.0346 3.62336,13.233764 7.98777,29.331476 4.36442,16.09771 8.02502,29.59463 8.13466,29.993169 l 0.19936,0.724601 h -16.34253 c -15.523114,0 -16.340534,-0.007 -16.302545,-0.148169 z"
       id="path21"
       inkscape:connector-curvature="0" />
  </g>
</svg>
